<svg width="350" height="250" viewBox="0 0 950 250" fill="none" xmlns="http://www.w3.org/2000/svg">
<path fill-rule="evenodd" clip-rule="evenodd" d="M937.703 32.578L939.826 41.7291C940.924 46.7805 941.802 50.9534 941.656 51.0998C941.509 51.173 939.752 50.4409 934.115 47.5858H901.684C877.379 47.5858 868.886 47.8054 867.422 48.4643C866.324 48.9767 865.006 50.2945 864.494 51.3926C863.908 52.6372 863.469 55.7851 863.469 59.2991C863.469 64.7166 863.616 65.3022 867.715 69.9144L899.488 70.2804C927.234 70.5733 931.48 70.7929 933.383 71.891C934.555 72.5499 936.458 74.0141 937.483 75.1854C938.581 76.2835 939.972 78.3334 940.631 79.5779C941.656 81.701 941.802 85.5078 941.802 107.251C941.802 122.405 941.509 133.24 941.07 134.338C940.631 135.363 939.24 137.34 937.922 138.877C936.678 140.341 934.262 142.098 932.651 142.83C929.943 144.075 926.502 144.221 834.918 144.221L834.259 141.439C833.82 139.975 832.795 135.875 831.843 132.361C830.891 128.847 830.306 125.773 830.525 125.553C830.745 125.333 832.721 125.992 838.944 128.847L904.612 128.481L906.735 126.065C908.785 123.796 908.858 123.503 908.858 116.182C908.858 110.252 908.639 108.349 907.614 106.958C906.882 105.933 905.198 104.688 903.88 104.176C902.123 103.444 894.656 103.224 871.888 103.224C848.827 103.224 841.726 103.005 839.823 102.273C838.578 101.687 836.382 100.15 834.991 98.7586C833.673 97.3676 831.989 95.3178 831.33 94.0732C830.305 92.1698 830.159 88.6558 830.159 68.0842C830.159 45.2431 830.232 44.145 831.696 41.363C832.575 39.7524 834.405 37.483 835.723 36.3116C837.114 35.1403 839.164 33.7493 840.408 33.2369C842.165 32.4316 852.195 32.2852 937.703 32.578ZM281.095 31.4799L294.565 63.8381C301.959 81.701 311.989 105.64 316.747 117.134C321.579 128.921 326.338 139.17 327.582 140.78C328.827 142.244 329.559 143.635 329.266 143.855C329.046 144.075 319.602 144.221 308.402 144.221C295.59 144.221 287.903 143.928 287.684 143.489C287.464 143.05 287.83 142.318 288.416 141.878C289.074 141.366 289.587 140.487 289.514 140.048C289.514 139.536 287.098 133.313 278.898 113.474H228.018L221.723 125.699C218.062 132.727 215.207 139.316 214.475 144.221H204.226C198.589 144.221 193.757 144.001 193.464 143.709C193.171 143.416 194.196 141.659 195.807 139.829C197.71 137.632 207.008 120.209 223.26 88.2165C236.804 61.6418 247.785 39.5328 247.785 39.1668C247.785 38.8007 247.126 37.0437 246.321 35.2867C245.515 33.6029 245.076 32.0655 245.369 31.8459C245.589 31.6263 253.788 31.4799 281.095 31.4799ZM246.467 77.4549C241.123 87.9969 236.804 96.9284 236.804 97.3676C236.804 97.8069 243.099 98.0997 254.374 98.0997C264.037 98.0997 271.944 97.8801 271.944 97.5872C271.944 97.2212 268.43 88.2897 264.11 77.6745L256.204 58.3474L246.467 77.4549ZM350.204 31.4067V33.8225C350.204 35.1403 356.06 53.3692 363.235 74.3069C370.336 95.3178 376.486 112.595 376.852 112.741C377.218 112.961 379.414 107.983 381.683 101.687C384.026 95.4642 390.322 78.6994 395.666 64.3505C401.01 50.0749 405.549 36.8973 406.208 31.7727L415.725 31.6263C420.996 31.4799 425.755 31.5531 426.341 31.7727C427.292 32.1388 427.219 32.5048 425.901 33.8225C425.023 34.7011 422.241 40.7042 419.752 47.1465C417.263 53.5889 407.965 77.6745 399.107 100.589C390.249 123.576 382.928 142.757 382.708 143.269C382.489 143.928 378.682 144.148 366.676 144.148C356.719 144.148 350.936 143.928 350.936 143.416C350.936 143.05 342.663 118.452 332.56 88.729C319.676 50.9534 313.746 34.4814 312.794 33.8225C312.062 33.3101 311.623 32.578 311.842 32.1388C312.062 31.6995 319.31 31.4067 350.204 31.4067ZM800.07 31.4067C810.539 31.4067 819.397 31.5531 819.69 31.7727C819.983 31.9923 819.471 33.3833 816.908 37.6294V138.95L818.592 141.22C819.471 142.464 819.983 143.635 819.764 143.782C819.471 144.001 810.686 144.221 800.144 144.221C789.675 144.221 780.817 144.075 780.524 143.855C780.231 143.635 780.597 142.391 781.402 141.073C782.866 138.73 782.866 137.486 782.72 86.972C782.574 38.8007 782.427 35.1403 781.256 33.8958C780.524 33.1637 780.158 32.2852 780.451 31.9923C780.743 31.6995 789.528 31.4067 800.07 31.4067ZM438.713 32.1388H534.323L536.666 41.5095C537.984 46.6341 538.935 50.9534 538.862 51.0266C538.789 51.173 536.959 50.3677 530.663 47.5858L476.122 47.5126V80.4564H499.403C513.971 80.4564 523.708 80.1636 525.538 79.6511C527.149 79.2119 528.979 78.4066 529.565 77.8209C530.224 77.3085 530.956 77.0888 531.249 77.3817C531.541 77.6745 531.834 82.3598 531.834 87.7773C531.834 93.2679 531.688 97.9533 531.468 98.2461C531.248 98.5389 530.15 98.2461 529.052 97.514C527.295 96.3427 524.44 96.1963 476.122 95.8302V128.774H503.063C524.806 128.774 530.516 128.554 532.859 127.676C534.47 127.09 536.373 126.139 537.105 125.48C537.837 124.894 538.496 124.674 538.716 124.967C538.862 125.26 537.984 129.653 534.323 143.782L487.836 144.001C462.286 144.075 440.982 144.001 440.47 143.855C439.738 143.562 439.884 142.903 440.836 141.073C442.007 138.877 442.08 134.85 442.08 36.6777L438.713 32.1388ZM647.87 32.1388L650.066 41.2898C651.237 46.3412 652.116 50.6605 652.043 50.8069C651.969 51.0266 650.212 50.3677 644.575 47.5126L593.183 47.8786L589.669 51.9051V87.7773C589.669 110.252 589.889 124.235 590.401 125.114C590.767 125.919 592.231 127.09 593.695 127.676C595.745 128.554 600.431 128.774 619.831 128.774C638.646 128.701 644.063 128.481 646.406 127.676C648.016 127.09 649.846 126.065 650.578 125.48C651.384 124.821 652.043 124.674 652.262 125.114C652.409 125.553 651.53 130.019 647.87 144.221L567.194 143.782L563.607 141.586C560.971 139.975 559.507 138.364 555.92 131.336V88.1433C555.993 47.659 556.066 44.8038 557.384 42.0219C558.116 40.4113 559.8 38.0686 561.191 36.8241C562.509 35.5796 564.632 33.969 565.876 33.3833C567.78 32.3584 573.051 32.212 647.87 32.1388ZM666.684 32.1388H766.468L768.81 41.5095C770.128 46.6341 771.007 50.9534 770.787 51.173C770.567 51.3926 769.689 51.0998 768.81 50.5141C767.859 49.9284 766.321 49.0499 765.37 48.4643C763.979 47.8054 759.44 47.5126 733.158 47.5126L733.524 138.877L735.134 141.146C736.013 142.391 736.599 143.562 736.306 143.782C736.013 144.001 727.155 144.148 716.539 144.148C705.924 144.148 697.286 144.001 697.286 143.782C697.286 143.562 697.798 142.391 698.53 141.073C699.701 138.877 699.848 134.924 700.214 47.5126H684.987C670.125 47.5126 669.686 47.5126 666.172 49.3428C664.122 50.3677 662.365 51.0998 662.292 51.0266C662.145 50.8801 663.097 46.6341 664.342 41.5095L666.684 32.1388Z" fill="#051831"/>
<path d="M105.801 124.944H65.874V97.713H97.3545L147.263 63.2732H175V76.5885L165.114 83.4965L145.343 97.3125L105.801 124.944Z" fill="#051831"/>
<path d="M105.861 0H65.9699V27.5851H97.4228L147.287 62.4722H175V48.9839L165.123 41.9862L145.369 27.9908L105.861 0Z" fill="#051831"/>
<rect x="175" y="76" width="28" height="25" transform="rotate(180 175 76)" fill="#051831"/>
<path d="M69.1996 48.0556H109.126V75.2871H77.6456L27.7374 109.727H0V96.4115L9.88566 89.5035L29.657 75.6875L69.1996 48.0556Z" fill="#051831"/>
<path d="M69.1388 173H109.03V145.415H77.5773L27.713 110.528H0V124.016L9.87696 131.014L29.6309 145.009L69.1388 173Z" fill="#051831"/>
<rect y="97" width="28" height="25" fill="#051831"/> 
</svg>
