<svg xmlns="http://www.w3.org/2000/svg" width="512" height="512" viewBox="0 0 512 512" version="1.1"><path d="" stroke="none" fill="#080404" fill-rule="evenodd"/><path d="M 375.813 48.470 C 367.412 50.784, 361.615 54.255, 355 60.936 C 348.796 67.201, 347.272 69.877, 321.507 119.750 L 294.515 172 288.007 172.007 C 273.789 172.022, 255.062 178.853, 241.927 188.814 C 238.311 191.556, 230.242 199.582, 223.995 206.650 C 194.105 240.465, 173.239 258.239, 148.533 270.933 C 131.318 279.777, 119.883 283.764, 95.525 289.414 C 83.508 292.201, 76.164 299.074, 73.985 309.573 C 73.054 314.058, 73.142 315.975, 74.491 320.619 C 75.898 325.456, 77.472 327.630, 85.812 336.261 C 104.509 355.608, 132.115 377.809, 164.335 399.411 C 198.777 422.502, 228.166 437.857, 262.500 450.700 C 272.577 454.470, 275.649 455.192, 281.667 455.206 C 294.810 455.236, 303.035 449.821, 312.788 434.719 C 336.017 398.750, 352.671 364.358, 371.971 312.500 C 386.366 273.822, 386.304 274.044, 386.792 259.916 C 387.303 245.092, 385.320 235.205, 379.428 223.204 L 375.845 215.908 380.593 206.704 C 383.205 201.642, 395.145 178.680, 407.126 155.678 C 419.107 132.676, 429.815 111.436, 430.922 108.479 C 440.297 83.422, 424.291 54.147, 397.888 48.061 C 391.976 46.698, 381.545 46.891, 375.813 48.470 M 380.500 76.890 C 378.300 77.905, 375.523 79.808, 374.330 81.118 C 373.136 82.428, 361.185 104.701, 347.771 130.614 L 323.383 177.728 335.442 183.823 C 342.074 187.175, 349.179 190.920, 351.231 192.145 C 353.283 193.369, 355.122 194.175, 355.318 193.936 C 355.763 193.392, 397.591 112.853, 402 104.050 C 408.227 91.619, 405.138 81.298, 393.768 76.548 C 388.942 74.531, 385.414 74.622, 380.500 76.890 M 110.500 164.368 C 106.702 166.136, 101.443 171.651, 100.061 175.315 C 98.366 179.812, 98.789 187.667, 100.956 191.914 C 108.379 206.464, 129.032 206.567, 136.673 192.093 C 141.189 183.538, 138.711 172.966, 130.694 166.587 C 127.450 164.006, 125.898 163.516, 120.194 163.265 C 115.980 163.081, 112.389 163.489, 110.500 164.368 M 279 201.579 C 267.980 204.479, 261.129 208.790, 250.750 219.357 C 245.387 224.817, 241 229.800, 241 230.431 C 241 231.487, 349.995 289.339, 350.684 288.649 C 350.852 288.481, 352.629 283.654, 354.634 277.922 C 364.022 251.078, 357.003 228.866, 334.886 215.431 C 326.617 210.407, 309.266 202.416, 303.807 201.117 C 297.438 199.601, 285.684 199.820, 279 201.579 M 56.500 225.421 C 51.567 227.630, 46.874 233.355, 45.428 238.930 C 39.815 260.571, 68.564 273.454, 81.496 255.093 C 84.115 251.374, 84.493 249.979, 84.496 244.009 C 84.500 238.013, 84.129 236.652, 81.458 232.848 C 77.270 226.883, 71.923 224.027, 65 224.056 C 61.975 224.068, 58.150 224.683, 56.500 225.421 M 209.500 262.176 C 204 267.195, 195.450 274.334, 190.500 278.042 C 169.748 293.584, 138.943 308.193, 114.628 314.023 C 110.299 315.061, 106.575 316.091, 106.354 316.313 C 105.087 317.580, 148.217 355, 150.943 355 C 151.752 355, 156.980 351.613, 168.390 343.698 C 174.829 339.231, 183.062 340.449, 187.885 346.581 C 193.216 353.358, 191.029 361.325, 181.863 368.526 L 175.871 373.234 182.685 377.832 C 186.433 380.361, 196.475 386.640, 205 391.785 L 220.500 401.140 227.796 393.446 C 231.808 389.214, 238.432 380.693, 242.515 374.510 C 250.918 361.784, 252.660 360.551, 261.765 360.882 C 263.957 360.961, 266.217 362.088, 268.643 364.312 C 271.653 367.070, 272.338 368.464, 272.740 372.646 C 273.085 376.239, 272.722 378.641, 271.464 381.084 C 268.527 386.789, 260.316 398.540, 253.986 406.098 C 250.694 410.029, 248.006 413.527, 248.013 413.872 C 248.042 415.243, 278.532 427, 282.058 427 C 285.442 427, 302.381 399.416, 317.063 369.997 C 327.224 349.635, 341.052 316.719, 339.920 315.587 C 338.997 314.664, 221.110 253.001, 220.316 253.025 C 219.867 253.039, 215 257.157, 209.500 262.176" stroke="none" fill="#040404" fill-rule="evenodd"/></svg>