<svg xmlns="http://www.w3.org/2000/svg" width="30" height="30" viewBox="0 0 512 512" version="1.1"><path d="" stroke="none" fill="#080404" fill-rule="evenodd"/><path d="M 225.541 33.681 C 152.313 43.508, 86.885 90.876, 54.574 157.455 C 39.222 189.089, 32 220.617, 32 256 C 32 276.071, 33.938 292.316, 38.488 310.380 C 60.333 397.116, 128.976 460.752, 218.500 477.263 C 234.871 480.282, 275.903 480.491, 291.500 477.634 C 334.935 469.680, 370.955 452.859, 402.500 425.800 C 436.598 396.551, 461.814 356.068, 472.921 312.741 C 478.715 290.141, 479.466 283.633, 479.466 256 C 479.466 228.367, 478.715 221.859, 472.921 199.259 C 461.788 155.833, 436.676 115.516, 402.500 86.200 C 369.187 57.624, 327.934 39.151, 284.989 33.579 C 269.810 31.610, 240.600 31.660, 225.541 33.681 M 228.970 66.524 C 186.739 73.110, 150.282 91.468, 120.956 120.913 C 84.512 157.505, 65 204.671, 65 256.173 C 65 313.557, 89.876 366.670, 134 403.494 C 171.372 434.683, 223.091 451.194, 270.592 447.101 C 339.877 441.130, 398.064 401.742, 428.074 340.500 C 464.488 266.189, 449.619 178.442, 390.686 119.864 C 375.132 104.404, 359.396 93.402, 338.636 83.474 C 310.820 70.172, 287.128 64.971, 255 65.115 C 245.375 65.158, 233.661 65.792, 228.970 66.524 M 319.500 172.221 C 316.127 173.093, 310.837 177.892, 285.743 202.848 L 255.986 232.440 227.243 203.779 C 211.434 188.016, 197.233 174.642, 195.685 174.059 C 185.531 170.239, 174.608 176.051, 173.275 185.983 C 172.012 195.400, 171.825 195.145, 203.292 226.745 L 232.415 255.991 228.469 260.245 C 226.299 262.585, 213.183 275.975, 199.323 290 C 185.462 304.025, 173.644 316.767, 173.061 318.315 C 168.363 330.783, 178.588 342.942, 191.750 340.538 C 194.995 339.945, 199.573 335.792, 225.742 309.706 L 255.984 279.559 285.742 309.152 C 317.474 340.707, 318.922 341.810, 327.154 340.706 C 331.737 340.091, 337.370 336.119, 339.501 331.998 C 341.259 328.598, 341.474 320.805, 339.895 317.684 C 339.287 316.483, 325.456 302.116, 309.159 285.758 L 279.528 256.016 309.690 225.758 C 335.791 199.575, 339.945 194.995, 340.538 191.750 C 342.852 179.081, 331.985 168.993, 319.500 172.221" stroke="none" fill="#040404" fill-rule="evenodd"/></svg>