<svg xmlns="http://www.w3.org/2000/svg" width="30" height="30" viewBox="0 0 512 512" version="1.1"><path d="" stroke="none" fill="#080404" fill-rule="evenodd"/><path d="M 189.465 1.473 C 181.767 3.906, 174.578 8.262, 168.920 13.920 C 158.914 23.926, 155 34.403, 155 51.182 L 155 62 122.250 62.015 C 86.444 62.031, 81.144 62.634, 71.639 67.777 C 63.820 72.007, 56.863 79.458, 52.522 88.250 C 49.056 95.270, 48.655 96.919, 48.260 105.750 C 47.741 117.380, 49.611 124.562, 55.448 133.356 C 61.272 142.130, 68.722 147.938, 79.250 151.912 L 82 152.950 82.015 305.225 C 82.031 471.857, 81.719 462.808, 87.918 476.479 C 91.647 484.704, 98.731 493.942, 105.354 499.216 C 111.861 504.399, 122.742 509.479, 130.500 510.957 C 134.851 511.785, 170.311 512.017, 259.500 511.800 L 382.500 511.500 388.432 509.262 C 403.966 503.400, 415.353 493.187, 422.501 478.704 C 430.441 462.618, 429.963 473.754, 429.983 304.280 L 430 153.061 437.339 149.670 C 469.607 134.761, 473.123 90.458, 443.662 69.991 C 433.344 62.823, 431.532 62.548, 392.383 62.198 L 357.266 61.885 356.733 49.692 C 356.121 35.670, 354.367 29.405, 348.634 20.769 C 342.574 11.638, 334.839 5.901, 323.181 1.890 C 318.011 0.111, 314.027 0.006, 255.593 0.099 C 208.263 0.174, 192.541 0.501, 189.465 1.473 M 197.718 25.092 C 192.601 26.296, 189.027 28.267, 185.803 31.661 C 181.286 36.416, 180 40.916, 180 51.968 L 180 62 256.108 62 L 332.216 62 331.825 50.750 C 331.471 40.564, 331.177 39.099, 328.711 35.260 C 325.434 30.159, 320.095 26.461, 314 25.074 C 308.406 23.800, 203.134 23.816, 197.718 25.092 M 86.202 88.049 C 73.948 92.966, 69.074 108.724, 76.407 119.715 C 78.238 122.459, 80.995 124.815, 84.306 126.465 L 89.393 129 255.728 129 C 403.845 129, 422.471 128.830, 425.782 127.447 C 443.168 120.185, 443.168 95.815, 425.782 88.553 C 422.469 87.169, 403.897 87.007, 255.282 87.063 C 155.995 87.101, 87.570 87.500, 86.202 88.049 M 106.020 300.250 C 106.032 393.079, 106.408 449.057, 107.047 453.500 C 109.651 471.590, 121.294 484.352, 137.636 487.028 C 145.160 488.260, 365.229 488.288, 373.734 487.058 C 387.837 485.018, 399.077 474.953, 403.487 460.416 C 404.780 456.153, 404.980 435.467, 404.989 304.750 L 405 154 255.500 154 L 106 154 106.020 300.250 M 180.270 186.449 C 178.493 187.240, 176.132 189.375, 175.023 191.193 C 173.033 194.459, 173.007 195.957, 173.004 310.800 C 173 437.068, 172.717 430.619, 178.414 434.352 C 179.802 435.261, 182.931 436, 185.394 436 C 189.063 436, 190.475 435.417, 193.329 432.726 C 196.192 430.026, 196.913 428.494, 197.450 423.976 C 197.808 420.964, 197.965 368.100, 197.800 306.500 C 197.513 199.232, 197.421 194.370, 195.634 191.418 C 194.607 189.723, 192.975 187.841, 192.007 187.236 C 188.901 185.297, 183.650 184.944, 180.270 186.449 M 252.327 185.661 C 249.133 186.334, 245.170 190.728, 244.018 194.873 C 242.903 198.888, 242.562 418.717, 243.661 425.366 C 244.073 427.861, 245.500 430.433, 247.683 432.616 C 250.526 435.459, 251.786 436, 255.569 436 C 258.066 436, 261.190 435.266, 262.586 434.352 C 268.283 430.619, 268.001 437.072, 267.985 310.800 C 267.974 220.488, 267.694 193.963, 266.735 192.096 C 264.273 187.305, 257.943 184.478, 252.327 185.661 M 323.258 185.670 C 319.993 186.350, 315.373 191.385, 314.637 195.065 C 314.287 196.817, 314 249.283, 314 311.657 C 314 434.804, 313.752 429.300, 319.514 433.832 C 322.893 436.490, 329.009 436.699, 333.080 434.294 C 339.326 430.604, 339 437.394, 339 311.067 C 339 186.686, 339.188 191.135, 333.781 187.592 C 331.061 185.810, 326.547 184.986, 323.258 185.670" stroke="none" fill="#040404" fill-rule="evenodd"/></svg>