<svg xmlns="http://www.w3.org/2000/svg" width="30" height="30" viewBox="0 0 512 512" version="1.1"><path d="" stroke="none" fill="#080404" fill-rule="evenodd"/><path d="M 437.500 1.870 C 422.062 6.314, 428.143 0.719, 303.750 124.913 C 240.638 187.924, 188.366 240.834, 187.589 242.490 C 185.738 246.439, 170.996 320.290, 170.998 325.602 C 171.002 333.092, 178.672 341, 185.933 341 C 187.934 341, 207.464 337.415, 229.334 333.033 C 257.807 327.329, 269.865 324.509, 271.799 323.102 C 273.285 322.022, 325.613 269.919, 388.083 207.319 C 493.018 102.167, 501.940 92.967, 505.248 86.500 C 509.958 77.295, 512 69.023, 512 59.155 C 512 48.381, 510.578 42.088, 505.953 32.397 C 498.720 17.243, 482.409 4.394, 466.201 1.083 C 458.392 -0.513, 444.448 -0.130, 437.500 1.870 M 446.951 33.324 C 440.198 35.202, 436.518 37.873, 425.754 48.713 L 416.008 58.528 434.805 77.305 L 453.602 96.083 464.347 85.065 C 476.812 72.283, 479.368 67.711, 479.298 58.326 C 479.241 50.702, 476.494 44.583, 470.831 39.466 C 463.936 33.237, 455.275 31.009, 446.951 33.324 M 304.998 169.501 L 217.500 257.002 212.843 280.251 C 210.282 293.038, 208.257 303.568, 208.343 303.651 C 208.429 303.734, 218.952 301.721, 231.726 299.177 L 254.951 294.553 342.720 206.780 L 430.488 119.008 412.004 100.504 C 401.838 90.327, 393.290 82, 393.008 82 C 392.726 82, 353.122 121.375, 304.998 169.501 M 45.379 86.405 C 24.454 91.513, 6.664 109.017, 1.499 129.581 C 0.154 134.935, 0.003 155.443, 0.235 301.081 L 0.500 466.500 2.833 472.723 C 9.050 489.309, 22.691 502.950, 39.277 509.167 L 45.500 511.500 210.800 511.765 C 393.370 512.057, 381.124 512.456, 394.807 505.757 C 402.633 501.925, 413.405 492.050, 417.877 484.605 C 419.735 481.513, 422.435 475.949, 423.877 472.242 L 426.500 465.500 426.500 365.824 C 426.500 266.253, 426.498 266.144, 424.408 263.324 C 420.730 258.359, 416.250 256, 410.500 256 C 403.896 256, 399.329 258.875, 396.250 264.970 L 394 269.424 393.994 363.462 C 393.991 425.158, 393.633 458.781, 392.954 461.225 C 391.295 467.200, 386.064 473.147, 379.528 476.490 L 373.641 479.500 213.071 479.500 L 52.500 479.500 47.814 477.192 C 42.484 474.566, 36.588 468.501, 34.153 463.140 C 32.638 459.803, 32.500 446.093, 32.500 298.500 L 32.500 137.500 35.201 132.380 C 37.976 127.120, 41.874 123.222, 47.370 120.214 C 50.246 118.639, 58.359 118.459, 147.500 118 C 243.091 117.507, 244.551 117.470, 247.997 115.446 C 258.550 109.246, 258.894 95.163, 248.677 87.592 C 245.862 85.506, 245.586 85.500, 148.177 85.328 C 72.939 85.195, 49.324 85.443, 45.379 86.405" stroke="none" fill="#040404" fill-rule="evenodd"/></svg>