<svg xmlns="http://www.w3.org/2000/svg" width="25" height="25" viewBox="0 0 512 512" version="1.1">
	<path d="" stroke="none" fill="#080404" fill-rule="evenodd"/>
	<path d="M 243 93.110 C 191.948 96.089, 136.271 120.570, 83.500 163.240 C 58.502 183.453, 36.313 205.376, 14.714 231.201 C 2.738 245.519, 0 250.134, 0 256 C 0 261.867, 2.739 266.482, 14.716 280.799 C 36.222 306.506, 58.611 328.626, 83.500 348.758 C 131.001 387.178, 180.791 410.809, 228.402 417.531 C 242.833 419.569, 269.167 419.569, 283.598 417.531 C 323.734 411.865, 365.359 394.247, 406 365.726 C 437.908 343.332, 469.702 313.777, 497.141 281 C 509.464 266.280, 513 260.349, 513 254.397 C 513 251.914, 512.624 250.114, 512.165 250.398 C 511.705 250.682, 510.600 249.384, 509.708 247.513 C 505.615 238.932, 473.440 203.232, 452.560 184.106 C 420.478 154.719, 393.826 135.957, 360.016 118.958 C 320.844 99.262, 282.545 90.803, 243 93.110 M 240.500 127.631 C 215.368 130.366, 191.184 137.957, 164.333 151.536 C 124.098 171.885, 82.150 206.127, 44.632 249.247 L 38.763 255.991 45.476 263.746 C 55.500 275.325, 79.034 298.952, 91.500 309.951 C 136.920 350.025, 182.507 374.295, 228.110 382.678 C 241.107 385.067, 270.893 385.067, 283.890 382.678 C 305.608 378.685, 324.977 371.939, 347.667 360.464 C 387.892 340.120, 429.856 305.868, 467.345 262.779 L 473.191 256.061 466.495 248.280 C 450.467 229.657, 422.049 202.412, 402.500 186.928 C 364.063 156.483, 322.608 136.309, 284.441 129.476 C 275.697 127.911, 248.445 126.766, 240.500 127.631 M 244.678 155.092 C 216.633 158.054, 188.992 174.460, 172.949 197.668 C 136.759 250.019, 155.879 321.111, 213.399 348.066 C 272.115 375.581, 341.964 340.408, 355.521 276.500 C 357.782 265.839, 357.782 246.161, 355.521 235.500 C 346.311 192.084, 310.249 159.668, 266 155.030 C 255.485 153.928, 255.704 153.928, 244.678 155.092 M 245 189.622 C 231.367 192.233, 218.968 198.862, 208.915 208.915 C 200.622 217.208, 195.474 225.517, 191.826 236.500 C 189.889 242.330, 189.500 245.590, 189.500 256 C 189.500 270.167, 191.282 277.305, 197.741 289 C 202.387 297.414, 214.586 309.613, 223 314.259 C 234.695 320.718, 241.833 322.500, 256 322.500 C 266.410 322.500, 269.670 322.111, 275.500 320.174 C 286.825 316.412, 294.776 311.426, 303.530 302.598 C 312.757 293.294, 318.735 282.500, 321.417 270.303 C 328.765 236.891, 309.144 203.061, 276 191.994 C 269.596 189.856, 251.150 188.444, 245 189.622 M 0.300 256 C 0.300 259.025, 0.487 260.262, 0.716 258.750 C 0.945 257.238, 0.945 254.762, 0.716 253.250 C 0.487 251.738, 0.300 252.975, 0.300 256" stroke="none" fill="#040404" fill-rule="evenodd"/></svg>