<svg xmlns="http://www.w3.org/2000/svg" width="40" height="40" viewBox="0 0 512 512" version="1.1"><path d="" stroke="none" fill="#080404" fill-rule="evenodd"/><path d="M 218.241 1.995 C 216.448 3.088, 214.198 5.271, 213.239 6.847 C 212.281 8.423, 208.154 23.246, 204.069 39.788 L 196.641 69.863 189.071 72.620 C 184.907 74.137, 177.320 77.329, 172.212 79.714 L 162.924 84.051 138.557 69.443 C 113.006 54.125, 109.488 52.694, 102.807 54.899 C 100.401 55.693, 92.203 63.254, 75.305 80.265 C 53.107 102.610, 51.174 104.836, 50.517 108.807 C 50.054 111.608, 50.262 114.231, 51.111 116.307 C 51.829 118.063, 58.848 130.217, 66.708 143.315 C 74.569 156.413, 81 167.530, 81 168.020 C 81 168.510, 79.266 172.868, 77.147 177.705 C 75.028 182.542, 72.551 188.761, 71.642 191.525 L 69.989 196.550 39.857 204.025 C 23.285 208.136, 8.433 212.283, 6.854 213.241 C 5.274 214.198, 3.088 216.448, 1.995 218.241 C 0.113 221.327, 0.007 223.335, 0.007 256 C 0.007 288.665, 0.113 290.673, 1.995 293.759 C 3.088 295.552, 5.274 297.802, 6.854 298.759 C 8.433 299.717, 23.262 303.858, 39.806 307.962 L 69.887 315.425 72.049 321.462 C 73.238 324.783, 76.256 332.097, 78.756 337.716 L 83.300 347.932 69.612 370.813 C 61.746 383.962, 55.676 395.220, 55.342 397.282 C 54.273 403.867, 57.434 408.043, 81.733 432.147 C 105.770 455.990, 108.405 457.897, 115.476 456.570 C 117.317 456.225, 129.042 449.831, 141.532 442.360 L 164.242 428.778 174.371 433.284 C 179.942 435.761, 187.232 438.767, 190.571 439.963 L 196.641 442.137 204.069 472.212 C 208.154 488.754, 212.281 503.577, 213.239 505.153 C 214.198 506.729, 216.448 508.912, 218.241 510.005 C 221.327 511.887, 223.335 511.993, 256 511.993 C 288.665 511.993, 290.673 511.887, 293.759 510.005 C 295.552 508.912, 297.802 506.729, 298.761 505.153 C 299.719 503.577, 303.846 488.754, 307.931 472.212 L 315.359 442.137 322.929 439.380 C 327.093 437.863, 334.515 434.747, 339.423 432.455 L 348.347 428.288 370.791 441.774 C 383.136 449.191, 394.707 455.711, 396.504 456.263 C 404.267 458.645, 405.579 457.731, 431.735 431.720 C 448.731 414.819, 456.308 406.596, 457.101 404.193 C 459.247 397.690, 457.832 394.189, 443.224 369.875 L 429.236 346.593 432.712 339.046 C 434.623 334.896, 437.520 327.883, 439.150 323.463 L 442.112 315.425 472.193 307.963 C 488.738 303.858, 503.547 299.729, 505.102 298.786 C 506.657 297.844, 509.070 295.265, 510.465 293.056 L 513 289.040 513 254.353 C 513 235.276, 512.702 219.965, 512.337 220.330 C 511.972 220.694, 510.851 219.640, 509.846 217.987 C 508.841 216.334, 506.726 214.198, 505.146 213.241 C 503.567 212.283, 488.738 208.142, 472.194 204.038 L 442.113 196.575 439.370 189.038 C 437.861 184.892, 434.886 177.725, 432.758 173.112 L 428.889 164.724 441.815 143.112 C 458.630 114.999, 458.317 115.650, 457.767 109.925 C 457.169 103.705, 455.799 102.060, 429.789 76.332 C 406.913 53.704, 405.816 52.957, 397.458 54.313 C 395.571 54.619, 383.473 61.208, 370.575 68.955 L 347.123 83.040 338.812 79.207 C 334.240 77.098, 327.108 74.139, 322.962 72.630 L 315.425 69.887 307.962 39.806 C 303.858 23.262, 299.717 8.433, 298.759 6.854 C 297.802 5.274, 295.552 3.088, 293.759 1.995 C 290.673 0.113, 288.665 0.007, 256 0.007 C 223.335 0.007, 221.327 0.113, 218.241 1.995 M 245.500 152.113 C 221.373 154.429, 200.344 164.544, 182.444 182.444 C 164.271 200.617, 154.349 221.511, 152.144 246.250 C 149.298 278.187, 159.715 306.827, 182.444 329.556 C 205.173 352.285, 233.813 362.702, 265.750 359.856 C 290.489 357.651, 311.383 347.729, 329.556 329.556 C 352.285 306.827, 362.702 278.187, 359.856 246.250 C 357.651 221.511, 347.729 200.617, 329.556 182.444 C 315.864 168.752, 302.502 160.744, 284.784 155.611 C 277.401 153.472, 273.405 152.861, 258.500 151.591 C 256.300 151.403, 250.450 151.638, 245.500 152.113 M 0.451 256 C 0.451 275.525, 0.585 283.513, 0.748 273.750 C 0.912 263.988, 0.912 248.013, 0.748 238.250 C 0.585 228.488, 0.451 236.475, 0.451 256" stroke="none" fill="#040404" fill-rule="evenodd"/></svg>