<svg xmlns="http://www.w3.org/2000/svg" width="35" height="35" viewBox="0 0 512 512" version="1.1"><path d="" stroke="none" fill="#080404" fill-rule="evenodd"/><path d="M 155 108.741 L 155 195.482 133.998 174.498 L 112.995 153.513 98.751 167.758 L 84.506 182.003 129.753 227.250 L 175 272.497 220.247 227.250 L 265.494 182.003 251.249 167.758 L 237.005 153.513 216.002 174.498 L 195 195.482 195 108.741 L 195 22 175 22 L 155 22 155 108.741 M 45 68.570 C 28.334 72.927, 13.686 84.824, 6.301 100 C 4.026 104.675, 1.678 110.885, 1.083 113.799 C 0.336 117.453, -0 162.499, -0 258.839 C 0 413.899, -0.438 403.592, 6.759 417.981 C 11.829 428.119, 21.881 438.171, 32.019 443.241 C 42.876 448.671, 49.276 450, 64.573 450 L 77.725 450 80.811 456.250 C 87.598 469.996, 101.036 482.037, 115.064 486.941 C 123.128 489.760, 138.394 490.764, 147.235 489.056 C 155.366 487.486, 166.336 482.206, 173.362 476.483 C 179.482 471.498, 186.861 461.830, 190.052 454.616 L 192.094 450 253.410 450 L 314.725 450 317.811 456.250 C 324.598 469.996, 338.036 482.037, 352.064 486.941 C 360.128 489.760, 375.394 490.764, 384.235 489.056 C 392.366 487.486, 403.336 482.206, 410.362 476.483 C 416.482 471.498, 423.861 461.830, 427.052 454.616 L 429.094 450 470.384 450 L 511.675 450 512.336 411.750 C 512.700 390.713, 512.889 315.450, 512.756 244.500 L 512.515 115.500 512 209 C 511.716 260.425, 511.376 301.310, 511.242 299.855 C 510.818 295.227, 506.912 283.734, 503.315 276.531 C 501.401 272.698, 489.665 256.048, 477.234 239.531 C 431.933 179.337, 432.359 179.824, 419.500 173.482 C 407.640 167.633, 403.419 167, 376.290 167 L 352 167 352 142.710 C 352 115.333, 351.380 111.319, 345.251 99 C 340.186 88.819, 330.181 78.814, 320 73.749 C 307.094 67.328, 304.534 67, 267.290 67 L 234 67 234 87 L 234 107 263.750 107.006 C 281.424 107.009, 295.033 107.437, 297.277 108.060 C 301.690 109.286, 307.384 113.986, 309.801 118.398 C 311.374 121.270, 311.520 132.208, 311.766 265.750 L 312.033 410 252.063 410 L 192.094 410 190.052 405.384 C 184.515 392.866, 173.458 381.664, 160.639 375.581 C 151.824 371.399, 145.313 370, 134.661 370 C 111.274 370, 90.126 383.515, 80.286 404.750 L 77.853 410 68.608 410 C 51.578 410, 43.496 405.267, 41.035 393.852 C 40.187 389.917, 39.963 353.153, 40.191 255 C 40.477 131.623, 40.629 121.265, 42.199 118.398 C 44.616 113.986, 50.310 109.286, 54.723 108.060 C 56.931 107.447, 69.821 107.009, 85.750 107.006 L 113 107 113 87 L 113 67 81.750 67.066 C 57.961 67.116, 49.187 67.475, 45 68.570 M 0.486 258.500 C 0.486 336.600, 0.605 368.402, 0.750 329.172 C 0.895 289.941, 0.895 226.041, 0.750 187.172 C 0.605 148.302, 0.486 180.400, 0.486 258.500 M 352 244.418 L 352 282 405.087 282 L 458.173 282 455.337 278.229 C 453.776 276.155, 443.545 262.543, 432.600 247.979 C 421.655 233.416, 410.698 219.126, 408.251 216.224 C 400.972 207.594, 400.821 207.553, 374.750 207.170 L 352 206.836 352 244.418 M 352 347.567 L 352 373.135 354.250 372.413 C 362.540 369.754, 375.956 369.183, 385.201 371.097 C 392.602 372.629, 403.753 378.133, 410.362 383.517 C 416.482 388.502, 423.861 398.170, 427.052 405.384 L 429.094 410 450.547 410 L 472 410 472 366 L 472 322 412 322 L 352 322 352 347.567 M 129.115 411.501 C 122.977 413.415, 118.251 418.330, 116.389 424.735 C 115.010 429.479, 115.013 430.533, 116.421 435.376 C 117.532 439.199, 119.100 441.761, 121.846 444.242 C 132.695 454.043, 149.536 449.284, 153.611 435.265 C 154.985 430.538, 154.985 429.462, 153.611 424.735 C 151.704 418.174, 146.994 413.404, 140.488 411.446 C 134.818 409.740, 134.762 409.740, 129.115 411.501 M 366.115 411.501 C 359.977 413.415, 355.251 418.330, 353.389 424.735 C 352.010 429.479, 352.013 430.533, 353.421 435.376 C 354.532 439.199, 356.100 441.761, 358.846 444.242 C 369.695 454.043, 386.536 449.284, 390.611 435.265 C 391.985 430.538, 391.985 429.462, 390.611 424.735 C 388.704 418.174, 383.994 413.404, 377.488 411.446 C 371.818 409.740, 371.762 409.740, 366.115 411.501" stroke="none" fill="#040404" fill-rule="evenodd"/></svg>