<svg xmlns="http://www.w3.org/2000/svg" width="30" height="30" viewBox="0 0 512 512" version="1.1"><path d="" stroke="none" fill="#080404" fill-rule="evenodd"/><path d="M 212.500 25.394 C 201.290 28.971, 192.522 36.573, 187.582 46.997 L 184.500 53.500 184.180 76.466 C 183.801 103.713, 184.299 106.404, 190.949 113.024 C 198.303 120.346, 208.955 122.124, 218.500 117.623 C 224.458 114.813, 227.174 112.048, 229.916 106 C 231.670 102.132, 231.959 99.429, 231.978 86.750 L 232 72 336 72 L 440 72 440 256 L 440 440 336 440 L 232 440 232 425.866 C 232 408.695, 231.037 404.982, 225.028 398.972 C 213.249 387.193, 193.100 390.618, 186.060 405.597 C 183.969 410.045, 183.887 411.300, 184.187 434.374 L 184.500 458.500 187.582 465.003 C 191.530 473.333, 198.667 480.470, 206.997 484.418 L 213.500 487.500 336 487.500 L 458.500 487.500 465.003 484.418 C 473.333 480.470, 480.470 473.333, 484.418 465.003 L 487.500 458.500 487.500 256 L 487.500 53.500 484.418 46.997 C 480.470 38.667, 473.333 31.530, 465.003 27.582 L 458.500 24.500 337.500 24.309 C 241.694 24.157, 215.667 24.383, 212.500 25.394 M 269.748 142.366 C 264.153 144.453, 259.380 148.498, 256.272 153.784 C 253.944 157.744, 253.504 159.622, 253.526 165.500 C 253.545 170.310, 254.127 173.595, 255.388 176 C 256.397 177.925, 268.974 191.313, 283.336 205.750 L 309.450 232 176.591 232 C 78.657 232, 42.714 232.305, 39.858 233.161 C 27.793 236.775, 21.200 250.840, 25.222 264.384 C 26.830 269.796, 34.204 277.170, 39.616 278.778 C 42.769 279.714, 74.820 280, 176.591 280 L 309.450 280 283.336 306.250 C 268.974 320.688, 256.474 333.987, 255.558 335.804 C 249.036 348.744, 256.470 365.464, 270.566 369.562 C 277.172 371.483, 282.144 371.078, 288.233 368.126 C 291.182 366.697, 307.512 350.985, 341.084 317.279 C 393.362 264.791, 392 266.430, 392 256 C 392 245.580, 393.314 247.165, 341.584 195.178 C 315.138 168.601, 291.588 145.721, 289.250 144.333 C 284.020 141.228, 275.186 140.337, 269.748 142.366" stroke="none" fill="#040404" fill-rule="evenodd"/></svg>