<svg xmlns="http://www.w3.org/2000/svg" width="30" height="30" viewBox="0 0 512 512" version="1.1"><path d="" stroke="none" fill="#080404" fill-rule="evenodd"/><path d="M 52.500 25.394 C 41.290 28.971, 32.522 36.573, 27.582 46.997 L 24.500 53.500 24.500 256 L 24.500 458.500 27.582 465.003 C 31.530 473.333, 38.667 480.470, 46.997 484.418 L 53.500 487.500 176 487.500 L 298.500 487.500 305.003 484.418 C 313.333 480.470, 320.470 473.333, 324.418 465.003 L 327.500 458.500 327.820 435.534 C 328.199 408.287, 327.701 405.596, 321.051 398.976 C 309.276 387.252, 289.102 390.614, 282.123 405.462 C 280.254 409.438, 280 411.773, 280 424.989 L 280 440 176 440 L 72 440 72 256 L 72 72 176 72 L 280 72 280 86.134 C 280 103.305, 280.963 107.018, 286.972 113.028 C 299.300 125.356, 320.274 120.943, 326.470 104.717 C 327.891 100.997, 328.089 96.904, 327.818 76.927 L 327.500 53.500 324.418 46.997 C 320.470 38.667, 313.333 31.530, 305.003 27.582 L 298.500 24.500 177.500 24.309 C 81.694 24.157, 55.667 24.383, 52.500 25.394 M 365.748 142.366 C 360.153 144.453, 355.380 148.498, 352.272 153.784 C 349.944 157.744, 349.504 159.622, 349.526 165.500 C 349.545 170.310, 350.127 173.595, 351.388 176 C 352.397 177.925, 364.974 191.313, 379.336 205.750 L 405.450 232 272.591 232 C 174.657 232, 138.714 232.305, 135.858 233.161 C 123.793 236.775, 117.200 250.840, 121.222 264.384 C 122.830 269.796, 130.204 277.170, 135.616 278.778 C 138.769 279.714, 170.820 280, 272.591 280 L 405.450 280 379.336 306.250 C 364.974 320.688, 352.474 333.987, 351.558 335.804 C 345.951 346.930, 350.452 361.067, 361.708 367.683 C 365.730 370.048, 367.624 370.500, 373.500 370.500 C 379.304 370.500, 381.269 370.042, 385 367.822 C 387.496 366.337, 410.915 343.623, 437.584 316.822 C 489.314 264.835, 488 266.420, 488 256 C 488 245.580, 489.314 247.165, 437.584 195.178 C 411.138 168.601, 387.588 145.721, 385.250 144.333 C 380.020 141.228, 371.186 140.337, 365.748 142.366" stroke="none" fill="#040404" fill-rule="evenodd"/></svg>