<svg xmlns="http://www.w3.org/2000/svg" width="30" height="30" viewBox="0 0 512 512" version="1.1"><path d="" stroke="none" fill="#080404" fill-rule="evenodd"/><path d="M 51.500 1.972 C 49.300 3.116, 37.860 11.578, 26.077 20.776 C 2.117 39.481, 0.476 41.431, 0.533 51.132 C 0.577 58.582, 4.578 65.317, 11 68.750 C 14.683 70.719, 16.613 71.089, 21.633 70.788 C 27.705 70.424, 28.677 69.978, 37.750 63.390 L 40 61.756 40 92.682 L 40 123.607 42.535 128.694 C 48.493 140.650, 63.571 143.584, 73.637 134.746 C 80.780 128.474, 80.465 131.111, 80.814 74.500 C 80.986 46.450, 80.847 21.187, 80.505 18.360 C 79.770 12.281, 76.234 6.384, 71.294 2.999 C 66.306 -0.419, 57.020 -0.901, 51.500 1.972 M 173.500 51.573 C 157.292 60.002, 158.769 84.095, 175.795 89.018 C 178.380 89.765, 227.755 90, 339.086 89.795 L 498.671 89.500 502.803 86.637 C 507.475 83.399, 512 75.436, 512 70.453 C 512 62.849, 507.090 54.853, 500.616 51.913 C 496.651 50.113, 490.614 50.043, 336.500 50.028 C 193.459 50.014, 176.182 50.178, 173.500 51.573 M 38.481 177.885 C 20.006 182.905, 6.301 196.841, 1.528 215.460 C -0.262 222.441, -0.390 227.055, 1.060 232.277 C 3.130 239.731, 12.167 246.932, 19.500 246.972 C 30.981 247.035, 40.890 237.377, 41.017 226 C 41.067 221.489, 46.225 217, 51.358 217 C 54.462 217, 59.743 221.327, 60.248 224.284 C 61.399 231.028, 45.364 252.547, 19.807 278.556 C 6.813 291.780, 2.694 296.611, 1.472 300.056 C -1.765 309.182, 2.407 319.507, 11.237 324.223 C 15.446 326.471, 15.954 326.500, 51.500 326.500 L 87.500 326.500 91.961 324 C 103.216 317.693, 105.928 303.434, 97.757 293.522 C 93.113 287.888, 88.181 286.048, 77.651 286.022 L 68.802 286 73.774 280.250 C 85.365 266.844, 95.266 251.098, 98.907 240.282 C 104.776 222.844, 98.362 201.087, 83.687 188.652 C 70.963 177.870, 53.682 173.755, 38.481 177.885 M 173.306 237.535 C 170.036 239.164, 167.199 241.574, 165.360 244.285 C 162.887 247.929, 162.500 249.448, 162.500 255.500 C 162.500 261.552, 162.887 263.071, 165.360 266.715 C 167.199 269.426, 170.036 271.836, 173.306 273.465 L 178.393 276 335.946 275.994 C 448.268 275.990, 494.647 275.670, 497.497 274.879 C 502.975 273.358, 509.467 266.695, 510.993 261.025 C 512.304 256.158, 511.730 250.312, 509.522 246.043 C 507.442 242.021, 501.605 237.262, 497.277 236.060 C 494.715 235.349, 442.802 235.009, 335.946 235.006 L 178.393 235 173.306 237.535 M 36.898 362.902 C 24.036 366.374, 11.726 375.889, 6.482 386.412 C 3.763 391.868, 3.395 395.894, 5.138 401.101 C 8.060 409.827, 15.394 415.143, 24.512 415.143 C 31.080 415.143, 34.831 413.270, 40.987 406.917 C 45.190 402.579, 46.241 402, 49.911 402 C 55.043 402, 58.511 404.160, 59.934 408.242 C 60.878 410.947, 60.725 411.667, 58.759 413.775 C 57.517 415.108, 54.155 417.762, 51.288 419.671 C 44.203 424.392, 40.454 431.745, 41.337 439.194 C 42.049 445.207, 45.812 451.445, 50.173 453.838 C 51.838 454.752, 54.936 456.726, 57.057 458.225 C 60.707 460.804, 60.856 461.115, 59.840 464.028 C 58.565 467.686, 55.530 469.878, 50.640 470.671 C 47.310 471.211, 46.652 470.838, 40.929 465.168 C 37.552 461.823, 33.211 458.565, 31.282 457.928 C 25.938 456.164, 17.785 457.215, 13.183 460.260 C 8.527 463.341, 4 471.612, 4 477.037 C 4 482.834, 9.312 492.210, 16.053 498.310 C 29.776 510.729, 44.676 514.592, 61.500 510.094 C 71.107 507.526, 74.669 505.852, 81.581 500.656 C 94.827 490.699, 101.793 475.260, 100.798 458.069 C 100.403 451.251, 99.748 448.795, 96.787 443.022 C 93.317 436.260, 93.281 436.068, 94.960 433.306 C 102.868 420.303, 103.042 402.897, 95.415 387.836 C 92.176 381.440, 83.348 372.186, 76.626 368.142 C 65.421 361.399, 50.001 359.366, 36.898 362.902 M 173.500 417.885 C 159.745 424.250, 158.062 442.669, 170.343 452.442 L 174.185 455.500 335.615 455.759 C 495.325 456.015, 497.086 455.997, 500.964 454.018 C 507.329 450.771, 512 442.953, 512 435.547 C 512 430.564, 507.475 422.601, 502.803 419.363 L 498.671 416.500 338.086 416.267 C 183.645 416.043, 177.347 416.105, 173.500 417.885" stroke="none" fill="#040404" fill-rule="evenodd"/></svg>