<svg xmlns="http://www.w3.org/2000/svg" width="30" height="30" viewBox="0 0 512 512" version="1.1"><path d="" stroke="none" fill="#080404" fill-rule="evenodd"/><path d="M 400.625 2.011 C 381.401 6.061, 360.273 19.592, 348.264 35.544 C 334.796 53.434, 327.852 77.496, 330.096 98.500 C 330.508 102.350, 331.173 108.576, 331.575 112.336 L 332.305 119.172 226.903 224.617 C 168.931 282.611, 120.522 330.313, 119.326 330.620 C 118.130 330.927, 112.989 330.463, 107.900 329.589 C 96.335 327.603, 87.682 327.578, 76.659 329.500 C 37.252 336.372, 7.352 366.701, 0.972 406.271 C -0.658 416.379, 0.223 433.129, 2.929 443.500 C 11.968 478.131, 41.965 505.332, 77.427 511.053 C 86.901 512.581, 106.120 511.771, 115 509.470 C 122.638 507.490, 137.936 500.516, 144.408 496.063 C 173.677 475.926, 188.920 439.014, 182.559 403.682 C 181.025 395.166, 181.004 393.899, 182.357 391.346 C 183.186 389.781, 230.876 341.528, 288.335 284.118 L 392.805 179.736 398.153 180.276 C 401.094 180.573, 407.550 181.360, 412.500 182.024 C 432.197 184.666, 455.410 178.648, 473.966 166.089 C 485.083 158.564, 497.195 144.115, 503.482 130.875 C 509.105 119.035, 511.097 110.931, 511.687 97.500 L 512.214 85.500 486.812 110.750 C 463.447 133.975, 461.133 136, 457.955 136 C 453.504 136, 400.888 118.486, 397.622 115.917 C 394.103 113.150, 375.304 56.933, 376.405 52.471 C 376.912 50.419, 384.763 41.846, 401.793 24.750 L 426.447 0 417.973 0.070 C 413.313 0.109, 405.506 0.982, 400.625 2.011 M 17.236 15.263 C 9.956 22.558, 4.011 28.971, 4.024 29.513 C 4.037 30.056, 10.900 42.425, 19.274 57 L 34.500 83.500 52.326 88.078 L 70.151 92.657 136.069 158.569 L 201.987 224.482 214 212.500 L 226.013 200.518 160.006 134.506 L 94 68.494 89.555 51.102 C 87.110 41.536, 84.747 33.355, 84.305 32.922 C 83.634 32.267, 31.093 2, 30.626 2 C 30.541 2, 24.516 7.969, 17.236 15.263 M 250.492 249.008 L 150.512 348.992 156.761 355.241 L 163.009 361.489 263.019 261.480 L 363.028 161.470 356.750 155.248 L 350.471 149.025 250.492 249.008 M 299.235 298.265 L 259.980 337.530 267.447 344.947 L 274.914 352.365 280.107 349.538 C 283.871 347.490, 287.188 346.576, 292.156 346.221 C 298.362 345.777, 299.619 346.030, 305.449 348.900 C 315.670 353.932, 321.200 362.442, 321.200 373.139 C 321.200 379.606, 319.666 385.155, 316.718 389.356 L 314.713 392.211 367.855 445.353 L 420.996 498.494 459.998 459.502 C 481.449 438.056, 499 420.056, 499 419.501 C 499 418.947, 475.400 394.896, 446.555 366.055 L 394.110 313.617 388.305 316.559 C 383.394 319.047, 381.345 319.496, 375 319.477 C 363.518 319.441, 355.285 314.369, 350.355 304.294 C 346.309 296.024, 346.402 287.455, 350.625 279.264 L 353.751 273.202 346.602 266.101 C 342.670 262.196, 339.236 259, 338.972 259 C 338.707 259, 320.826 276.669, 299.235 298.265 M 357.499 356.001 L 351.533 362.030 396.762 407.259 L 441.991 452.489 447.993 446.487 L 453.994 440.486 408.729 395.229 L 363.464 349.973 357.499 356.001 M 69.621 385.231 C 67.420 388.673, 51.275 415.618, 50.120 417.776 C 49.289 419.329, 51.030 422.870, 59.856 437.584 L 70.605 455.500 92.552 455.766 L 114.500 456.032 125.364 437.914 C 134.968 421.897, 136.093 419.546, 135.062 417.647 C 134.421 416.466, 129.532 408.300, 124.198 399.500 L 114.500 383.500 92.786 383.231 C 71.168 382.962, 71.065 382.971, 69.621 385.231 M 472.588 471.912 L 436.732 507.779 443.813 509.389 C 466.822 514.623, 489.847 505.617, 503.245 486.144 C 504.961 483.650, 507.627 477.984, 509.169 473.554 C 511.457 466.984, 511.976 463.785, 511.987 456.193 C 511.999 447.626, 510.641 438.536, 509.086 436.772 C 508.734 436.372, 492.309 452.185, 472.588 471.912" stroke="none" fill="#040404" fill-rule="evenodd"/></svg>