<svg xmlns="http://www.w3.org/2000/svg" width="30" height="30" viewBox="0 0 512 512" version="1.1"><path d="" stroke="none" fill="#080404" fill-rule="evenodd"/><path d="M 72 1.477 C 44.135 7.072, 18.642 27.774, 7.330 53.995 C -0.112 71.246, 0.538 53.053, 0.237 252.500 C 0.009 403.793, 0.187 432.666, 1.388 439.034 C 8.067 474.456, 36.753 503.258, 72.516 510.450 C 79.701 511.895, 98.407 512.027, 259.500 511.773 L 438.500 511.490 445.826 509.220 C 455.481 506.229, 464.579 502.048, 471.696 497.333 C 490.563 484.831, 505.775 462.645, 509.979 441.500 C 510.636 438.200, 511.584 434.719, 512.086 433.764 C 513.391 431.284, 513.305 76.693, 512 77.500 C 511.443 77.844, 511 77.087, 511 75.789 C 511 71.501, 506.928 58.580, 503.030 50.500 C 491.822 27.266, 471.187 10.273, 444.500 2.300 C 438.837 0.608, 428.384 0.497, 258.500 0.339 C 113.909 0.205, 77.221 0.429, 72 1.477 M 81.858 33.061 C 60.829 36.191, 42.622 51.504, 35.429 72.111 L 32.500 80.500 32.207 250.500 C 32.015 361.432, 32.266 423.174, 32.928 428.195 C 36.451 454.918, 56.302 475.160, 82.736 478.982 C 91.792 480.292, 420.094 480.308, 429.140 479 C 451.313 475.792, 469.182 461.058, 476.571 439.889 L 479.500 431.500 479.793 261.500 C 479.981 152.439, 479.729 88.787, 479.089 83.930 C 476.067 60.996, 461.108 42.533, 439.662 35.266 L 431.500 32.500 259.500 32.361 C 164.900 32.284, 84.961 32.600, 81.858 33.061 M 0.489 256 C 0.489 354.175, 0.606 394.338, 0.750 345.250 C 0.893 296.163, 0.893 215.838, 0.750 166.750 C 0.606 117.663, 0.489 157.825, 0.489 256 M 251.500 122.668 C 250.400 122.963, 248.037 124.306, 246.249 125.654 C 239.799 130.514, 240 128.539, 240 186.950 L 240 240 186.950 240 C 128.147 240, 130.591 239.736, 125.318 246.649 C 123.025 249.657, 122.533 251.306, 122.533 256 C 122.533 260.694, 123.025 262.343, 125.318 265.351 C 130.591 272.264, 128.147 272, 186.950 272 L 240 272 240 325.050 C 240 383.853, 239.736 381.409, 246.649 386.682 C 249.657 388.975, 251.306 389.467, 256 389.467 C 260.694 389.467, 262.343 388.975, 265.351 386.682 C 272.264 381.409, 272 383.853, 272 325.050 L 272 272 325.050 272 C 383.853 272, 381.409 272.264, 386.682 265.351 C 388.975 262.343, 389.467 260.694, 389.467 256 C 389.467 251.306, 388.975 249.657, 386.682 246.649 C 381.409 239.736, 383.853 240, 325.050 240 L 272 240 272 186.950 C 272 128.449, 272.218 130.556, 265.660 125.554 C 262.304 122.995, 255.474 121.602, 251.500 122.668" stroke="none" fill="#040404" fill-rule="evenodd"/></svg>