<svg xmlns="http://www.w3.org/2000/svg" width="30" height="30" viewBox="0 0 512 512" version="1.1"><path d="" stroke="none" fill="#080404" fill-rule="evenodd"/><path d="M 49.798 17.931 C 34.174 22.926, 22.746 34.368, 17.985 49.783 C 16.033 56.104, 16 59.531, 16 256 C 16 451.749, 16.040 455.918, 17.964 462.145 C 20.026 468.815, 24.386 476.522, 28.851 481.386 C 33.074 485.986, 42.812 491.862, 49.783 494.015 C 56.104 495.967, 59.531 496, 256 496 C 451.749 496, 455.918 495.960, 462.145 494.036 C 468.815 491.974, 476.522 487.614, 481.386 483.149 C 485.986 478.926, 491.862 469.188, 494.015 462.217 C 495.961 455.915, 496 452.553, 496 289.796 C 496 144.157, 495.816 123.414, 494.497 120.634 C 492.482 116.389, 394.269 18.394, 390.685 17.053 C 388.753 16.330, 335.749 16.017, 221.685 16.054 C 63.706 16.105, 55.218 16.198, 49.798 17.931 M 59.315 49.102 C 55.026 50.343, 50.300 55.260, 49.041 59.791 C 47.650 64.799, 47.606 447.042, 48.996 452.044 C 50.221 456.456, 55.526 461.717, 60.058 463.017 C 61.944 463.558, 70.802 464, 79.743 464 L 96 464 96 404.105 C 96 347.399, 96.105 343.872, 97.964 337.855 C 100.026 331.185, 104.386 323.478, 108.851 318.614 C 113.074 314.014, 122.812 308.138, 129.783 305.985 C 136.043 304.052, 139.333 304, 256 304 C 372.667 304, 375.957 304.052, 382.217 305.985 C 389.188 308.138, 398.926 314.014, 403.149 318.614 C 407.614 323.478, 411.974 331.185, 414.036 337.855 C 415.895 343.872, 416 347.399, 416 404.105 L 416 464 432.250 463.994 C 441.188 463.991, 450.095 463.546, 452.044 463.004 C 456.456 461.779, 461.717 456.474, 463.017 451.942 C 463.642 449.760, 464 391.579, 464 292.002 L 464 135.491 420.246 91.746 L 376.492 48 364.279 48 L 352.067 48 351.784 100.750 L 351.500 153.500 348.836 158.500 C 345.644 164.493, 340.131 169.934, 334 173.144 L 329.500 175.500 256 175.500 L 182.500 175.500 177.500 172.836 C 171.507 169.644, 166.066 164.131, 162.856 158 L 160.500 153.500 160.216 100.750 L 159.933 48 111.216 48.090 C 84.422 48.140, 61.067 48.595, 59.315 49.102 M 192 96 L 192 144 256 144 L 320 144 320 96 L 320 48 256 48 L 192 48 192 96 M 139.315 337.102 C 135.026 338.343, 130.300 343.260, 129.041 347.791 C 128.391 350.132, 128.009 372.242, 128.006 407.750 L 128 464 256 464 L 384 464 383.994 407.750 C 383.991 373.920, 383.596 350.087, 383.004 347.956 C 381.779 343.544, 376.474 338.283, 371.942 336.983 C 367.478 335.703, 143.755 335.817, 139.315 337.102" stroke="none" fill="#040404" fill-rule="evenodd"/></svg>