<svg xmlns="http://www.w3.org/2000/svg" width="30" height="30" viewBox="0 0 480 480" version="1.1"><path d="M 65.798 33.931 C 50.097 38.951, 38.649 50.467, 33.937 65.983 C 32.046 72.206, 31.957 75.007, 32.221 119.525 C 32.489 164.707, 32.576 166.602, 34.500 169.182 C 41.349 178.368, 55.258 178.131, 61.932 168.713 C 63.282 166.808, 63.570 160.173, 64 121 C 64.475 77.757, 64.599 75.335, 66.500 72.181 C 67.600 70.355, 70.075 67.880, 72 66.681 C 75.443 64.535, 76.301 64.492, 125 64 L 174.500 63.500 177.712 61.090 C 184.300 56.147, 185.924 46.959, 181.534 39.468 C 177.034 31.790, 178.673 31.993, 121.849 32.054 C 75.969 32.103, 70.994 32.269, 65.798 33.931 M 336.218 33.663 C 330.726 36.370, 328.500 40.505, 328.500 48 C 328.500 55.458, 330.198 58.555, 336.136 61.932 C 339.668 63.941, 341.105 64, 386.143 64 C 413.444 64, 433.919 64.403, 435.931 64.980 C 439.434 65.985, 444.264 69.940, 446.336 73.500 C 447.154 74.905, 447.649 89.035, 448 121 C 448.478 164.520, 448.587 166.617, 450.500 169.182 C 457.706 178.846, 473.517 177.860, 478.462 167.439 C 479.777 164.668, 480 157.522, 480 118.204 C 480 66.252, 479.877 65.235, 472.151 53.428 C 465.767 43.672, 457.474 37.465, 446.145 33.964 C 440.181 32.121, 436.697 32.001, 389.645 32.023 C 345.502 32.043, 339.107 32.239, 336.218 33.663 M 40.218 241.663 C 34.726 244.370, 32.500 248.505, 32.500 256 C 32.500 263.462, 34.198 266.555, 40.148 269.939 L 43.797 272.014 257.148 271.757 L 470.500 271.500 473.712 269.090 C 480.300 264.147, 481.924 254.959, 477.534 247.468 C 472.738 239.284, 493.982 239.997, 255.849 240.023 C 62.284 240.044, 43.210 240.189, 40.218 241.663 M 40.218 337.663 C 38.413 338.553, 35.938 340.680, 34.718 342.390 C 32.513 345.482, 32.498 345.778, 32.221 392.475 C 31.957 436.944, 32.048 439.799, 33.930 445.975 C 37.417 457.424, 43.603 465.722, 53.458 472.170 C 65.507 480.054, 65.841 480.090, 123.518 479.777 C 172.228 479.512, 174.614 479.413, 177.057 477.557 C 182.210 473.640, 183.500 470.926, 183.500 464 C 183.500 458.878, 183.027 456.837, 181.270 454.373 C 176.693 447.958, 177.067 448.001, 125.849 447.994 C 98.517 447.991, 78.046 447.585, 75.956 447.004 C 71.544 445.779, 66.283 440.474, 64.983 435.942 C 64.408 433.937, 64 414.902, 64 390.094 L 64 347.676 61.534 343.468 C 60.096 341.013, 57.637 338.581, 55.633 337.630 C 51.274 335.562, 44.452 335.576, 40.218 337.663 M 456.218 337.663 C 454.413 338.553, 451.938 340.680, 450.718 342.390 C 448.524 345.466, 448.494 346.001, 448 391 C 447.649 422.965, 447.154 437.095, 446.336 438.500 C 444.264 442.060, 439.434 446.015, 435.931 447.020 C 433.919 447.597, 413.449 448, 386.158 448 C 345.460 448, 339.385 448.198, 336.381 449.623 C 331.520 451.930, 328.718 456.351, 328.207 462.520 C 327.629 469.487, 329.960 474.306, 335.468 477.534 L 339.676 480 389.733 480 C 446.248 480, 446.646 479.955, 458.572 472.151 C 468.328 465.767, 474.535 457.474, 478.036 446.145 C 479.868 440.218, 480 436.685, 480 393.733 L 480 347.676 477.534 343.468 C 476.096 341.013, 473.637 338.581, 471.633 337.630 C 467.274 335.562, 460.452 335.576, 456.218 337.663" stroke="none" fill="#000000" fill-rule="evenodd"/><path d="M 65.798 33.931 C 50.097 38.951, 38.649 50.467, 33.937 65.983 C 32.046 72.206, 31.957 75.007, 32.221 119.525 C 32.489 164.707, 32.576 166.602, 34.500 169.182 C 41.349 178.368, 55.258 178.131, 61.932 168.713 C 63.282 166.808, 63.570 160.173, 64 121 C 64.475 77.757, 64.599 75.335, 66.500 72.181 C 67.600 70.355, 70.075 67.880, 72 66.681 C 75.443 64.535, 76.301 64.492, 125 64 L 174.500 63.500 177.712 61.090 C 184.300 56.147, 185.924 46.959, 181.534 39.468 C 177.034 31.790, 178.673 31.993, 121.849 32.054 C 75.969 32.103, 70.994 32.269, 65.798 33.931 M 336.218 33.663 C 330.726 36.370, 328.500 40.505, 328.500 48 C 328.500 55.458, 330.198 58.555, 336.136 61.932 C 339.668 63.941, 341.105 64, 386.143 64 C 413.444 64, 433.919 64.403, 435.931 64.980 C 439.434 65.985, 444.264 69.940, 446.336 73.500 C 447.154 74.905, 447.649 89.035, 448 121 C 448.478 164.520, 448.587 166.617, 450.500 169.182 C 457.706 178.846, 473.517 177.860, 478.462 167.439 C 479.777 164.668, 480 157.522, 480 118.204 C 480 66.252, 479.877 65.235, 472.151 53.428 C 465.767 43.672, 457.474 37.465, 446.145 33.964 C 440.181 32.121, 436.697 32.001, 389.645 32.023 C 345.502 32.043, 339.107 32.239, 336.218 33.663 M 40.218 241.663 C 34.726 244.370, 32.500 248.505, 32.500 256 C 32.500 263.462, 34.198 266.555, 40.148 269.939 L 43.797 272.014 257.148 271.757 L 470.500 271.500 473.712 269.090 C 480.300 264.147, 481.924 254.959, 477.534 247.468 C 472.738 239.284, 493.982 239.997, 255.849 240.023 C 62.284 240.044, 43.210 240.189, 40.218 241.663 M 40.218 337.663 C 38.413 338.553, 35.938 340.680, 34.718 342.390 C 32.513 345.482, 32.498 345.778, 32.221 392.475 C 31.957 436.944, 32.048 439.799, 33.930 445.975 C 37.417 457.424, 43.603 465.722, 53.458 472.170 C 65.507 480.054, 65.841 480.090, 123.518 479.777 C 172.228 479.512, 174.614 479.413, 177.057 477.557 C 182.210 473.640, 183.500 470.926, 183.500 464 C 183.500 458.878, 183.027 456.837, 181.270 454.373 C 176.693 447.958, 177.067 448.001, 125.849 447.994 C 98.517 447.991, 78.046 447.585, 75.956 447.004 C 71.544 445.779, 66.283 440.474, 64.983 435.942 C 64.408 433.937, 64 414.902, 64 390.094 L 64 347.676 61.534 343.468 C 60.096 341.013, 57.637 338.581, 55.633 337.630 C 51.274 335.562, 44.452 335.576, 40.218 337.663 M 456.218 337.663 C 454.413 338.553, 451.938 340.680, 450.718 342.390 C 448.524 345.466, 448.494 346.001, 448 391 C 447.649 422.965, 447.154 437.095, 446.336 438.500 C 444.264 442.060, 439.434 446.015, 435.931 447.020 C 433.919 447.597, 413.449 448, 386.158 448 C 345.460 448, 339.385 448.198, 336.381 449.623 C 331.520 451.930, 328.718 456.351, 328.207 462.520 C 327.629 469.487, 329.960 474.306, 335.468 477.534 L 339.676 480 389.733 480 C 446.248 480, 446.646 479.955, 458.572 472.151 C 468.328 465.767, 474.535 457.474, 478.036 446.145 C 479.868 440.218, 480 436.685, 480 393.733 L 480 347.676 477.534 343.468 C 476.096 341.013, 473.637 338.581, 471.633 337.630 C 467.274 335.562, 460.452 335.576, 456.218 337.663" stroke="none" fill="#000000" fill-rule="evenodd"/></svg>