<svg xmlns="http://www.w3.org/2000/svg" width="30" height="30" viewBox="0 0 512 512" version="1.1"><path d="" stroke="none" fill="#080404" fill-rule="evenodd"/><path d="M 40.568 1.532 C 21.364 6.802, 4.975 23.991, 1.031 43 C 0.191 47.047, -0.030 104.129, 0.195 259 L 0.500 469.500 2.754 475.500 C 9.168 492.570, 23.803 505.935, 41.131 510.547 C 49.269 512.713, 340.846 512.682, 348.992 510.515 C 367.904 505.482, 383.482 489.904, 388.515 470.992 C 389.685 466.596, 389.979 457.174, 389.988 423.764 L 390 382.029 396.250 378.881 C 399.688 377.150, 404.462 374.388, 406.860 372.744 L 411.219 369.753 449.860 408.292 C 492.479 450.798, 492.360 450.707, 501.189 448.061 C 505.520 446.764, 510.843 442.026, 511.208 439.144 C 511.322 438.240, 511.679 444.025, 512 452 C 512.321 459.975, 512.566 371.325, 512.545 255 L 512.505 43.500 512.250 235.897 L 511.995 428.293 509.099 424.397 C 507.506 422.253, 489.781 404.126, 469.710 384.114 L 433.217 347.727 437.646 340.881 C 449.889 321.955, 455.858 295.860, 453.100 273.321 C 450.078 248.626, 440.279 228.290, 423.028 210.907 C 414.031 201.842, 406.554 196.318, 396.250 191.122 L 390 187.971 390 149.436 C 390 117.877, 389.740 110.412, 388.565 108.200 C 386.831 104.938, 284.421 2.674, 281.316 1.104 C 277.809 -0.669, 47.094 -0.259, 40.568 1.532 M 49.718 31.092 C 44.119 32.410, 40.763 34.413, 36.796 38.805 C 30.028 46.296, 30.500 30.005, 30.500 256 C 30.500 428.334, 30.723 462.132, 31.882 465.416 C 33.838 470.955, 40.286 477.559, 45.829 479.697 C 50.252 481.404, 58.170 481.500, 195 481.500 C 314.832 481.500, 340.162 481.266, 343.381 480.129 C 348.661 478.264, 354.883 472.441, 357.410 467 C 359.388 462.740, 359.516 460.563, 359.807 426.250 L 360.114 390 348.668 390 C 318.866 390, 294.436 379.763, 273.500 358.501 C 259.259 344.039, 249.901 326.860, 245.328 306.786 C 243.081 296.925, 243.059 273.167, 245.287 263.407 C 254.283 224.003, 281.742 194.803, 320.500 183.426 C 327.873 181.262, 332.257 180.689, 344.750 180.258 L 360 179.732 360 154.866 L 360 130 315.250 129.996 C 272.360 129.993, 270.365 129.910, 267.241 128.005 C 265.448 126.912, 263.088 124.552, 261.995 122.759 C 260.090 119.635, 260.007 117.640, 260.004 74.750 L 260 30 156.750 30.100 C 99.963 30.156, 51.798 30.602, 49.718 31.092 M 0.491 256 C 0.491 372.325, 0.607 419.912, 0.750 361.750 C 0.892 303.587, 0.892 208.412, 0.750 150.250 C 0.607 92.087, 0.491 139.675, 0.491 256 M 290 76 L 290 100 314.242 100 L 338.484 100 314.500 76 C 301.309 62.800, 290.400 52, 290.258 52 C 290.116 52, 290 62.800, 290 76 M 67.241 161.995 C 62.683 164.773, 60.007 169.584, 60.007 175 C 60.007 180.416, 62.683 185.227, 67.241 188.005 C 70.429 189.949, 72.453 189.993, 160 189.993 C 247.547 189.993, 249.571 189.949, 252.759 188.005 C 262.418 182.116, 262.418 167.884, 252.759 161.995 C 249.571 160.051, 247.547 160.007, 160 160.007 C 72.453 160.007, 70.429 160.051, 67.241 161.995 M 339.193 211.063 C 321.730 213.356, 309.103 219.741, 295.960 232.928 C 288.158 240.756, 285.658 244.049, 282.241 251 C 276.063 263.570, 274.544 270.282, 274.544 285 C 274.544 299.708, 276.060 306.414, 282.232 319 C 285.657 325.986, 288.100 329.199, 295.950 337.043 C 311.630 352.711, 327.027 359.192, 348.500 359.161 C 364.877 359.138, 380.188 354.349, 392 345.557 C 437.334 311.812, 431.796 243.846, 381.636 218.349 C 369.478 212.169, 352.705 209.290, 339.193 211.063 M 67.241 221.995 C 62.683 224.773, 60.007 229.584, 60.007 235 C 60.007 240.416, 62.683 245.227, 67.241 248.005 C 70.410 249.938, 72.410 249.993, 140 249.993 C 207.590 249.993, 209.590 249.938, 212.759 248.005 C 222.418 242.116, 222.418 227.884, 212.759 221.995 C 209.590 220.062, 207.590 220.007, 140 220.007 C 72.410 220.007, 70.410 220.062, 67.241 221.995 M 67.241 281.995 C 57.582 287.884, 57.582 302.116, 67.241 308.005 C 70.410 309.938, 72.410 309.993, 140 309.993 C 207.590 309.993, 209.590 309.938, 212.759 308.005 C 222.418 302.116, 222.418 287.884, 212.759 281.995 C 209.590 280.062, 207.590 280.007, 140 280.007 C 72.410 280.007, 70.410 280.062, 67.241 281.995 M 67.241 341.995 C 57.582 347.884, 57.582 362.116, 67.241 368.005 C 70.410 369.938, 72.410 369.993, 140 369.993 C 207.590 369.993, 209.590 369.938, 212.759 368.005 C 222.418 362.116, 222.418 347.884, 212.759 341.995 C 209.590 340.062, 207.590 340.007, 140 340.007 C 72.410 340.007, 70.410 340.062, 67.241 341.995" stroke="none" fill="#040404" fill-rule="evenodd"/></svg>