<svg xmlns="http://www.w3.org/2000/svg" width="35" height="35" viewBox="0 0 512 512" version="1.1"><path d="" stroke="none" fill="#080404" fill-rule="evenodd"/><path d="M 130.504 76.996 L 85.517 121.991 99.998 136.498 L 114.479 151.004 135.739 129.761 L 157 108.517 157 195.759 L 157 283 177 283 L 197 283 197 196.259 L 197 109.518 217.761 130.261 L 238.522 151.004 252.847 136.653 L 267.172 122.302 222.283 77.151 C 197.593 52.318, 176.965 32, 176.442 32 C 175.919 32, 155.247 52.248, 130.504 76.996 M 41.360 57.476 C 21.843 61.019, 9.567 69.155, 3.180 82.782 L 0.500 88.500 0.221 235 C -0.090 398.841, -0.494 388.854, 7.049 403.787 C 12.186 413.956, 18.576 421.772, 26.794 427.939 C 38.508 436.730, 49.520 439.928, 68.500 440.049 L 78.500 440.113 81.897 447.225 C 88.389 460.821, 103.112 472.718, 119.500 477.612 C 128.924 480.427, 143.454 480.015, 153.278 476.655 C 168.738 471.368, 181.125 460.902, 188.473 446.920 L 192.109 440 253.805 440.056 L 315.500 440.113 318.897 447.225 C 325.389 460.821, 340.112 472.718, 356.500 477.612 C 365.924 480.427, 380.454 480.015, 390.278 476.655 C 405.738 471.368, 418.125 460.902, 425.473 446.920 L 429.109 440 470.392 440 L 511.674 440 512.336 397.250 C 512.700 373.738, 512.889 294.875, 512.756 222 L 512.514 89.500 512 190.500 C 511.717 246.050, 511.376 290.310, 511.243 288.855 C 510.823 284.277, 506.902 272.765, 503.382 265.769 C 499.262 257.583, 443.533 183.104, 434.678 173.951 C 427.160 166.178, 415.471 159.631, 405.245 157.464 C 400.525 156.464, 391.543 156.030, 375.323 156.017 L 352.145 156 351.763 129.250 C 351.408 104.460, 351.214 102.044, 349.107 96.277 C 343.728 81.549, 332.645 69.309, 318.500 62.474 C 306.740 56.792, 301.670 56, 277.075 56 L 256.518 56 277.009 76.569 C 288.279 87.882, 299.161 98.003, 301.192 99.060 C 305.980 101.552, 309.626 106.410, 310.919 112.020 C 311.602 114.984, 311.959 164.288, 311.976 257.750 L 312 399 252.063 399 L 192.125 399 189.018 392.689 C 183.424 381.325, 173.750 371.401, 163.054 366.055 C 152.250 360.654, 147.360 359.514, 135 359.514 C 122.640 359.514, 117.750 360.654, 106.946 366.055 C 96.250 371.401, 86.576 381.325, 80.982 392.689 L 77.875 399 67.405 399 C 55.888 399, 51.469 397.764, 46.661 393.197 C 40.010 386.880, 40.528 398.327, 40.227 251 C 40.040 160.129, 40.290 115.920, 41.008 112.553 C 42.363 106.199, 45.921 101.590, 51.812 98.557 C 54.846 96.994, 63.552 89.062, 76.491 76.071 L 96.481 56 72.491 56.090 C 57.586 56.146, 45.796 56.671, 41.360 57.476 M 0.487 237.500 C 0.487 318.350, 0.605 351.277, 0.750 310.672 C 0.895 270.066, 0.895 203.916, 0.750 163.672 C 0.605 123.427, 0.487 156.650, 0.487 237.500 M 352 234 L 352 271 404.986 271 L 457.971 271 434.821 240.250 C 405.220 200.930, 405.534 201.313, 400.953 198.976 C 397.434 197.181, 395.016 197, 374.540 197 L 352 197 352 234 M 352 337.117 L 352 362.233 354.250 361.590 C 361.266 359.583, 368.468 358.834, 376 359.327 C 397.616 360.743, 416.488 373.331, 426.018 392.689 L 429.125 399 450.563 399 L 472 399 472 355.500 L 472 312 412 312 L 352 312 352 337.117 M 125.530 402.282 C 111.096 410.457, 112.662 430.949, 128.218 437.447 C 135.039 440.296, 142.532 438.714, 148.339 433.197 C 155.759 426.149, 156.585 415.483, 150.350 407.241 C 144.917 400.059, 133.486 397.775, 125.530 402.282 M 362.530 402.282 C 348.096 410.457, 349.662 430.949, 365.218 437.447 C 372.039 440.296, 379.532 438.714, 385.339 433.197 C 392.759 426.149, 393.585 415.483, 387.350 407.241 C 381.917 400.059, 370.486 397.775, 362.530 402.282" stroke="none" fill="#040404" fill-rule="evenodd"/></svg>