<svg xmlns="http://www.w3.org/2000/svg" width="35" height="35" viewBox="0 0 512 512" version="1.1"><path d="" stroke="none" fill="#080404" fill-rule="evenodd"/><path d="M 246.400 162.900 C 241.740 166.365, 83.987 324.411, 81.634 327.973 C 79.524 331.165, 79.519 339.184, 81.623 343.619 C 84.684 350.069, 92.031 353.127, 100.687 351.553 C 104.091 350.933, 112.616 342.753, 180.256 275.188 L 256.013 199.518 330.756 274.125 C 371.865 315.159, 406.613 349.467, 407.973 350.366 C 411.577 352.748, 420.413 352.526, 424.582 349.950 C 429.559 346.874, 432 342.235, 432 335.854 C 432 332.525, 431.372 329.494, 430.366 327.973 C 428.013 324.411, 270.260 166.365, 265.600 162.900 C 262.366 160.495, 260.726 160, 256 160 C 251.274 160, 249.634 160.495, 246.400 162.900" stroke="none" fill="#040404" fill-rule="evenodd"/></svg>