<svg xmlns="http://www.w3.org/2000/svg" width="95" height="95" viewBox="0 0 512 512" version="1.1"><path d="M 227.500 9.106 C 198.054 12.646, 170.193 21.199, 143.500 34.891 C 118.681 47.621, 99.410 61.567, 80.488 80.488 C 60.798 100.179, 46.729 119.852, 33.640 146 C 21.818 169.615, 14.076 194.305, 9.810 222 C 7.731 235.494, 8.053 279.788, 10.328 293.327 C 14.962 320.902, 21.467 341.161, 33.500 365.500 C 41.708 382.103, 54.815 403.380, 56.604 403.007 C 57.097 402.904, 59.874 399.823, 62.775 396.160 C 70.342 386.606, 89.005 368.007, 99.500 359.560 C 160.898 310.147, 240.421 292.572, 316.500 311.601 C 367.524 324.364, 414.724 354.275, 447.708 394.750 C 451.853 399.837, 455.363 404, 455.506 404 C 456.649 404, 470.902 380.583, 477.113 368.500 C 489.228 344.932, 496.995 321.160, 501.672 293.327 C 503.947 279.788, 504.269 235.494, 502.190 222 C 495.150 176.303, 477.167 134.912, 449.185 100 C 434.065 81.134, 413.695 62.646, 392.500 48.550 C 371.805 34.787, 340.669 21.087, 316.301 15.024 C 296.191 10.020, 285.478 8.769, 260 8.450 C 246.525 8.282, 231.900 8.577, 227.500 9.106 M 239.342 81.412 C 218.852 85.323, 200.997 94.954, 186.922 109.687 C 174.889 122.281, 166.617 137.388, 162.310 154.637 C 159.935 164.148, 159.935 187.852, 162.310 197.363 C 171.267 233.229, 197.502 259.796, 233.312 269.264 C 244.814 272.305, 267.948 272.285, 279.146 269.225 C 297.481 264.214, 313.069 255.021, 325.325 241.993 C 337.457 229.097, 345.398 214.551, 349.690 197.363 C 352.065 187.852, 352.065 164.148, 349.690 154.637 C 340.786 118.984, 314.378 92.113, 279.146 82.856 C 269.197 80.242, 249.259 79.519, 239.342 81.412 M 432.966 429.750 L 427.500 435.500 433.250 430.034 C 438.592 424.956, 439.458 424, 438.716 424 C 438.560 424, 435.972 426.587, 432.966 429.750 M 79.500 431 C 81.648 433.200, 83.631 435, 83.906 435 C 84.181 435, 82.648 433.200, 80.500 431 C 78.352 428.800, 76.369 427, 76.094 427 C 75.819 427, 77.352 428.800, 79.500 431" stroke="none" fill="#e3ebfc" fill-rule="evenodd"/><path d="M 239.342 81.412 C 218.852 85.323, 200.997 94.954, 186.922 109.687 C 174.889 122.281, 166.617 137.388, 162.310 154.637 C 159.935 164.148, 159.935 187.852, 162.310 197.363 C 171.267 233.229, 197.502 259.796, 233.312 269.264 C 244.814 272.305, 267.948 272.285, 279.146 269.225 C 297.481 264.214, 313.069 255.021, 325.325 241.993 C 337.457 229.097, 345.398 214.551, 349.690 197.363 C 352.065 187.852, 352.065 164.148, 349.690 154.637 C 340.786 118.984, 314.378 92.113, 279.146 82.856 C 269.197 80.242, 249.259 79.519, 239.342 81.412 M 237.500 304.649 C 235.850 304.842, 230.225 305.479, 225 306.066 C 182.240 310.870, 136.666 329.991, 101.500 357.882 C 88.314 368.340, 69.363 387.307, 60.897 398.520 L 56.789 403.961 62.973 411.730 C 70.632 421.355, 83.200 434.424, 93.041 443 C 97.143 446.575, 100.725 449.749, 101 450.052 C 102.135 451.306, 118.967 463.136, 125 466.919 C 130.563 470.408, 156.417 483.587, 162.500 486.035 C 174.546 490.882, 194.777 496.902, 207.500 499.424 C 238.379 505.547, 273.258 505.566, 304.500 499.476 C 336.469 493.245, 372.910 477.511, 399.781 458.337 C 416.731 446.241, 436.436 427.598, 449.040 411.730 L 455.212 403.959 447.691 394.730 C 400.736 337.111, 328.237 303.294, 253.500 304.151 C 246.350 304.233, 239.150 304.457, 237.500 304.649" stroke="none" fill="#4494fc" fill-rule="evenodd"/></svg>