<?xml version="1.0" standalone="no"?>
<!DOCTYPE svg PUBLIC "-//W3C//DTD SVG 20010904//EN"
 "http://www.w3.org/TR/2001/REC-SVG-20010904/DTD/svg10.dtd">
<svg version="1.0" xmlns="http://www.w3.org/2000/svg"
 width="512.000000pt" height="512.000000pt" viewBox="0 0 512.000000 512.000000"
 preserveAspectRatio="xMidYMid meet">

<g transform="translate(0.000000,512.000000) scale(0.100000,-0.100000)"
fill="#000000" stroke="none">
<path d="M1584 5111 c-79 -20 -138 -94 -138 -176 0 -98 71 -173 173 -182 l61
-6 -2 -240 -3 -239 -61 -22 c-162 -59 -324 -186 -425 -332 -48 -70 -107 -202
-131 -294 l-23 -85 0 -1235 c0 -1361 -4 -1275 62 -1439 95 -238 310 -443 543
-516 30 -10 59 -21 63 -25 5 -4 -17 -58 -48 -120 -63 -126 -68 -165 -25 -187
31 -16 1813 -19 1854 -3 49 18 45 51 -22 186 l-61 123 67 21 c180 59 355 190
463 346 48 70 107 202 131 294 l23 85 0 1235 0 1235 -23 85 c-24 92 -83 224
-131 294 -101 147 -272 279 -433 336 l-53 18 -3 241 -2 241 42 0 c55 1 117 29
151 69 33 40 41 68 35 131 -6 61 -39 111 -93 142 l-40 23 -960 2 c-528 0 -974
-2 -991 -6z m1384 -583 l-3 -223 -172 -3 -173 -2 0 90 0 90 62 0 c88 0 120 34
82 88 -15 21 -20 22 -204 22 -184 0 -189 -1 -204 -22 -38 -54 -7 -88 81 -88
l63 0 0 -90 0 -90 -172 2 -173 3 -3 223 -2 222 410 0 410 0 -2 -222z m-1131
-354 c-3 -3 -12 -4 -19 -1 -8 3 -5 6 6 6 11 1 17 -2 13 -5z m1470 0 c-3 -3
-12 -4 -19 -1 -8 3 -5 6 6 6 11 1 17 -2 13 -5z m-1867 -167 c0 -1 -26 -27 -57
-57 l-58 -55 55 58 c50 53 60 62 60 54z m2300 -52 c30 -30 52 -55 49 -55 -2 0
-29 25 -59 55 -30 30 -52 55 -49 55 2 0 29 -25 59 -55z m-2573 -427 c-3 -8 -6
-5 -6 6 -1 11 2 17 5 13 3 -3 4 -12 1 -19z m2096 -25 c-387 -2 -1019 -2 -1405
0 -387 1 -71 2 702 2 773 0 1089 -1 703 -2z m-728 -598 c62 -213 216 -405 443
-552 95 -62 130 -108 157 -208 35 -127 4 -348 -68 -490 -27 -55 -98 -158 -104
-152 -2 3 3 29 12 59 56 184 11 475 -101 661 -70 115 -206 226 -260 213 -38
-10 -50 -47 -31 -94 19 -48 47 -180 47 -224 0 -86 -51 -163 -163 -248 -113
-86 -155 -162 -164 -298 -3 -49 -1 -103 5 -124 13 -47 6 -48 -61 -4 -112 71
-201 204 -249 371 -20 71 -23 100 -22 270 0 105 5 204 11 220 l10 30 22 -43
c34 -67 91 -123 156 -154 76 -36 109 -36 132 -2 16 25 15 29 -10 107 -40 126
-50 204 -44 356 8 204 57 348 169 488 79 100 82 100 89 -20 4 -56 14 -129 24
-162z m728 -1812 c-387 -2 -1019 -2 -1405 0 -387 1 -71 2 702 2 773 0 1089 -1
703 -2z m-1873 -448 c30 -30 52 -55 49 -55 -2 0 -29 25 -59 55 -30 30 -52 55
-49 55 2 0 29 -25 59 -55z m2400 52 c0 -1 -26 -27 -57 -57 l-58 -55 55 58 c50
53 60 62 60 54z m-1953 -273 c-3 -3 -12 -4 -19 -1 -8 3 -5 6 6 6 11 1 17 -2
13 -5z m1470 0 c-3 -3 -12 -4 -19 -1 -8 3 -5 6 6 6 11 1 17 -2 13 -5z"/>
</g>
</svg>
